<?xml version="1.0" encoding="UTF-8"?>
<svg width="18"
    height="18"
    viewBox="0 96 960 960"
    xmlns="http://www.w3.org/2000/svg">
       <path
        fill="#7d7d7d"
          d="M400 736h160q17 0 28.5-11.5T600 696v-80h-80v40h-80V496h80v40h80v-80q0-17-11.5-28.5T560 416H400q-17 0-28.5 11.5T360 456v240q0 17 11.5 28.5T400 736Zm80 240q-83 0-156-31.5T197 859q-54-54-85.5-127T80 576q0-83 31.5-156T197 293q54-54 127-85.5T480 176q83 0 156 31.5T763 293q54 54 85.5 127T880 576q0 83-31.5 156T763 859q-54 54-127 85.5T480 976Zm0-80q134 0 227-93t93-227q0-134-93-227t-227-93q-134 0-227 93t-93 227q0 134 93 227t227 93Zm0-320Z"
        />
</svg>